<svg xmlns="http://www.w3.org/2000/svg" width="28" height="21" viewBox="0 0 28 21" class="fill-current" fill="white">
    <path d="M24.193 0q1.904 0 2.855.904.885.84.947 2.437l.005.25v13.817q0 1.784-.952 2.688-.884.84-2.588.9l-.267.004H3.807q-1.878 0-2.843-.904-.895-.84-.96-2.437L0 17.409V3.591Q0 1.808.964.904q.895-.84 2.58-.9L3.806 0zm.435 1.5H3.346q-.897 0-1.371.458-.423.407-.47 1.166l-.005.195v14.375q0 .89.475 1.348.421.407 1.177.452l.194.006h21.282q.896 0 1.384-.458.434-.407.482-1.156l.006-.192V3.319q0-.903-.488-1.361T24.628 1.5M11.905 5.559v1.6H7.511v2.533h4.128v1.498H7.511v2.65h4.394v1.599h-6.32v-9.88zm3.236 0 4.35 6.572h.065V5.559h1.812v9.88h-1.61L15.391 8.83h-.057v6.609h-1.812v-9.88z">
    </path>
</svg>