<svg xmlns="http://www.w3.org/2000/svg" width="28" height="21" viewBox="0 0 28 21" class="fill-current" fill="white">
    <path d="M9.84 5.559v4.017h4.274V5.559h2.02v9.88h-2.02v-4.234H9.84v4.234H7.827v-9.88zm10.3 0v9.88h-2.014v-9.88zM3.806 21h20.386q1.904 0 2.855-.904T28 17.408V3.592q0-1.784-.952-2.688Q26.097 0 24.193 0H3.807Q1.929 0 .964.904 0 1.809 0 3.592v13.816q0 1.784.964 2.688T3.807 21m-.461-1.5q-.897 0-1.371-.458-.475-.458-.475-1.348V3.319q0-.903.475-1.361.474-.458 1.371-.458h21.282q.896 0 1.384.458t.488 1.361v14.375q0 .89-.488 1.348t-1.384.458z">
    </path>
</svg> 
